<?xml version="1.0" encoding="utf-8"?>
<!-- Generator: Adobe Illustrator 16.0.4, SVG Export Plug-In . SVG Version: 6.00 Build 0)  -->
<!DOCTYPE svg PUBLIC "-//W3C//DTD SVG 1.1//EN" "http://www.w3.org/Graphics/SVG/1.1/DTD/svg11.dtd">
<svg version="1.1" id="Layer_1" xmlns="http://www.w3.org/2000/svg" xmlns:xlink="http://www.w3.org/1999/xlink" x="0px" y="0px"
	 width="1600px" height="1600px" viewBox="0 0 1600 1600" enable-background="new 0 0 1600 1600" xml:space="preserve">
<g id="layer1">
	
		<radialGradient id="SVGID_1_" cx="1254.5" cy="684.5" r="851.3989" gradientTransform="matrix(0.9208 0.3899 3.1196 -7.3667 -2944.6174 5237.8188)" gradientUnits="userSpaceOnUse">
		<stop  offset="0" style="stop-color:#F5C854"/>
		<stop  offset="1" style="stop-color:#A26B01"/>
	</radialGradient>
	<path fill="url(#SVGID_1_)" d="M696.52,1520.9c-9.199-1.101-12.899-3.7-16.699-11.601c-5.2-10.5-4.2-20.399,2.5-26
		c2.399-2,2.399-2.2,0.6-2.2c-1.1-0.1-6.1,0.601-11,1.4c-13.3,2.2-35.8,3-42.7,1.6c-10.7-2.3-12.6-9.199-6.1-22.199
		c2.8-5.601,5.899-9.601,12.7-16.4c15.3-15.1,25.6-18.5,41.699-13.6c7.801,2.399,13.9,3.6,13.9,2.6c0-2.8-3.5-7-24.5-29
		c-27.2-28.5-33.5-36-47.3-55.3c-13.5-18.8-24.601-40.2-31.2-60.2c-11.4-34.7-17.1-62.5-17.6-85l-0.2-13.5l-5.4-0.3
		c-12.399-0.601-62.2-6.101-83.3-9.2c-42-6.1-69.7-13.1-87.6-22c-30.7-15.4-72.601-43.7-88.4-59.8c-8-8.2-10.7-9.601-17.3-9
		c-3.8,0.399-6.7,1.8-13.7,6.5c-21.4,14.3-39.3,23.2-48.6,24c-5.2,0.5-6,0.3-8.301-2c-2-2.101-2.6-3.601-2.6-7.2
		c0-2.5,0.7-5.9,1.5-7.4c1.9-3.8,13.5-14.3,21.3-19.5c5.4-3.5,6-4.199,4.101-4.399c-1.301-0.2-4.101,0.1-6.4,0.8
		c-6,1.7-31.3,15.1-38.6,20.4c-14.5,10.5-13.7,10.1-20.801,10.1c-8.199,0-15.1-3.1-18.6-8.3c-4.4-6.5-2.7-13.601,5.1-20.8
		c1.9-1.801,3.4-3.9,3.4-4.801c0-1.5-0.8-1.6-5.9-1c-4.399,0.5-6.399,0.301-8.199-0.899c-1.301-0.9-6.2-2.8-10.9-4.3
		c-8.7-2.801-14.6-6.101-19-10.9c-2.3-2.4-2.5-3.4-2.4-10.4c0.4-20.199,12.601-49.8,25.4-61.3c7.2-6.5,12.9-9.3,24.8-12.2
		c25.8-6.3,59-3.3,73.4,6.601l6.3,4.3l31,0.3c18.3,0.2,35.5-0.1,42-0.8c10.6-1.1,27.5-4.2,29.6-5.6c0.601-0.301-0.699-2.5-3-4.9
		c-12-13.1-15-33.5-8.6-58.9c0.8-2.8,0.8-2.8-3.1-2.199c-17.301,2.699-54.301,3.399-84.7,1.6c-29.4-1.8-34.8-3.4-48.2-14.1
		c-8.2-6.601-7.2-6.4-18.6-3.801c-5,1.101-6.2,1.101-10.5-0.6c-14.801-5.7-22.4-24.6-18-45.1c2.199-9.801,8.399-29.5,12.6-39.4
		c6.1-14.6,8-21.2,9-32.4c3.1-31.399,11.6-66.399,22.2-91.1c9.399-22,19.8-39,34.3-56.2c10.6-12.6,18.7-19.899,53.5-47.8
		c15.7-12.6,31.3-25.3,34.8-28.3c9.8-8.4,15.3-19.2,23.2-45.2c14.3-46.9,19.5-59.9,28.5-70.8c13.8-16.8,25.5-20,42.5-11.5
		c6,3,9.8,8.3,14.7,20.3c2.8,6.9,4.1,10.7,10.5,30.8c1.3,4.101,2.7,7.4,3.2,7.5c0.699,0.2,3.3-6.7,7.5-19.3
		c2.199-6.5,8.5-18.2,12.199-22.3c7.5-8.601,20.5-11.2,29.101-5.8c4.6,2.899,17.5,18.3,37.899,45.1c14.801,19.3,16.5,22.3,19.4,33.5
		c2.3,8.7,2.7,12.2,2.8,26.6l0.2,16.601l3.9,5.899c2.199,3.4,16.8,18.801,35,36.9c21.699,21.5,33,33.6,37.1,39.5
		c8.4,11.9,17.2,20.8,25.3,25.7c10.7,6.399,15.101,7.6,27.7,7.7c9.8,0.1,12.1-0.301,20.5-3c25.3-8.301,80.5-16.101,127.2-18
		c9.8-0.4,17.8-1,17.8-1.5c0-0.4-2.1-1.7-4.6-2.9c-15.4-7.5-37.101-29.3-54.2-54.5c-16.3-24.1-36.2-65.3-48.2-100
		c-14.9-43.2-24.8-90.3-25-119.4v-6.4l2.2,1.9c6.1,5.3,10.7,7.6,16.8,8.1l6.2,0.6l-0.9-8.4c-1.399-14.7-0.8-52,1.101-67.9
		c6.8-55.7,28.399-109.1,57-140.7l4.3-4.7l0.6,7.3c1.101,13.3,7.9,22.5,15.101,20.7c4.1-1,20.699-12.7,35.6-25
		c55.6-46,84-61.7,135.5-74.9c41.9-10.8,70.8-14.2,119.9-13.8l10.899,0.1l-4.7,4.7c-5.5,5.3-6.8,8-5.399,10.6
		c1.5,2.9,8.5,5.4,16.8,6.1c14.4,1.2,44.7,7.7,59.5,12.8c42.3,14.5,74.2,32.5,105.9,59.8c43.3,37.2,77.8,85.9,100.199,141.3
		c31.2,77.2,29.2,152.4-4.5,177.101c-15.6,11.5-58.699,17.199-88.199,11.699c-16.2-3-31.4-8.699-46.101-17.199
		c-15.2-8.801-26.1-18-51.8-43.9c-14.2-14.3-27.5-26.9-30.1-28.3c-6.4-3.7-12.5-4.4-16.601-1.8c-5.6,3.5-6.8,7.1-6.7,20.1
		c0,10,0.4,12.9,3.301,22.5c8.3,27.8,27.199,57.7,44.399,70.4c9.3,6.8,22.8,14.399,62.7,35.399c50.2,26.3,90.2,53.601,119.8,81.5
		c7.101,6.7,10.9,8.7,14.601,7.8c2.8-0.699,5.1-6.1,4.399-10.6c-0.2-1.6-0.1-2.7,0.4-2.4c1.8,1.101,14,20.7,19,30.4
		c27.7,54.3,43.399,128.1,45.6,214.6c0.5,19.801,1,26.5,2.101,27.801c2,2.399,6.5,2,10-1l3.1-2.601v3.8c0,8.601-7.1,42.9-13.9,66.9
		c-3.1,11.1-12.399,38.7-18.199,54c-2.801,7.7-5.801,15.6-6.5,17.5c-1.2,3.4-10.101,25.5-15,37.3c-1.301,3.101-3.5,8.3-4.801,11.5
		c-1.3,3.101-3.699,9-5.399,13.101c-1.7,4.1-3.4,8.699-3.7,10.199c-1.6,7.4,6.7,10.601,16.7,6.4c1.5-0.6,1.399,0.2-0.8,5.1
		c-23.5,52.5-52.5,94.4-94.9,136.9c-44.4,44.6-99.1,83.9-156,112.3c-7.2,3.601-8.1,3.8-9.1,2.3c-1.101-1.5-1.301-1.399-2,0.4
		c-1.9,5.6-9,20.9-13,28.3c-14.4,26.4-49,57.8-86.9,78.9c-23.7,13.2-42.8,19.399-64.5,20.8c-5.2,0.3-21,1.5-35,2.5s-31.1,2.2-38,2.5
		s-28.5,1.4-48,2.5c-30.4,1.7-53.7,2.5-123,4.4C741.62,1522.8,705.12,1522,696.52,1520.9z"/>
</g>
</svg>
